<svg xmlns="http://www.w3.org/2000/svg" enable-background="new 372.673 -803.279 3000 3000" viewBox="372.673 -803.279 3000 3000" id="add-to-cart">
  <polygon fill="#D7A28E" points="2573.371 1531.992 2567.567 1688.696 2638.544 1678.118 2649.109 1546.41"></polygon>
  <path fill="#FFC439" d="M2644.292,1635.745c9.303-7.884,15.23,108.024,7.32,111.646
							c-7.91,3.622-214.427,22.586-234.106,15.341c-19.68-7.246-23.364-45.681,8.079-54.302
							c31.442-8.62,97.507-24.628,116.119-51.409c0,0,11.804-34.886,16.792-38.414c4.988-3.528,8.438,22.211,8.438,22.211
							S2621.963,1654.668,2644.292,1635.745z"></path>
  <path fill="#DBA12C" d="M2445.946,1703.005c-0.369,1.289,2.184,2.868,4.823,6.032c2.656,3.209,5.147,8.545,7.032,15.122
								c3.681,13.232,4.676,25.167,7.123,25.209c2.193,0.178,5.223-12.254,1.043-27.577c-2.122-7.566-6.398-14.272-11.256-17.293
								C2449.792,1701.506,2446.122,1702.063,2445.946,1703.005z"></path>
  <path fill="#11405C" d="M2657.094,1728.019c0.496,4.042,1.736,22.036-5.474,23.946c-7.208,1.91-240.762,19.003-242.508,15.9
							c-1.746-3.103-3.032-14.982-3.949-17.211C2404.244,1748.425,2657.094,1728.019,2657.094,1728.019z"></path>
  <path fill="#DBA12C" d="M2527.851 1692.701c5.168-6.684-8.186-20.56-11.741-19.309C2512.554 1674.645 2522.754 1699.291 2527.851 1692.701zM2508.14 1700.54c5.168-6.683-8.186-20.559-11.741-19.308C2492.844 1682.483 2503.044 1707.131 2508.14 1700.54zM2487.504 1707.131c5.168-6.682-8.186-20.559-11.741-19.308C2472.208 1689.074 2482.408 1713.721 2487.504 1707.131zM2574.403 1697.068c.724 11.041 10.261 19.406 21.303 18.682 11.041-.724 19.404-10.262 18.68-21.303-.724-11.041-10.261-19.405-21.302-18.681C2582.043 1676.49 2573.679 1686.028 2574.403 1697.068z"></path>
  <polygon fill="#11405C" points="2454.864 493.359 2557.156 1610.855 2658.373 1613.008 2791.638 478.396"></polygon>
  <g>
    <path fill="#D7A28E" d="M2829.831,1589.631c0.309,4.479-5.584,72.553-4.456,91.532c-7.593,9.524-62.494,12.881-67.643,3.486
						c-5.146-9.398-6.081-91.565-6.081-91.565L2829.831,1589.631z"></path>
    <path fill="#FFC439" d="M2828.439,1762.7c-6.491,3.435-150.777,10.406-164.955,11.38c-14.18,0.971-12.23-50.416,31.491-54.451
						l48.9-45.292c1.588-10.403,3.907-21.964,6.373-26.755c4.472-8.573,25.761-11.023,40.091-2.772
						c6.654,3.855,10.063,12.646,11.516,21.51c13.994-0.658,24.555,0.255,25.989,7.914
						C2829.834,1684.837,2834.973,1759.26,2828.439,1762.7z"></path>
    <path fill="#DBA12C" d="M2739.311 1739.689c-1.475-4.902-24.287-25.079-46.306-19.562 0 0 8.978-15.37 31.138-4.96C2740.502 1722.852 2739.311 1739.689 2739.311 1739.689zM2800.731 1712.287c.555 8.075 5.935 14.284 12.018 13.865 6.083-.418 10.561-7.306 10.001-15.382-.555-8.078-5.938-14.286-12.018-13.865C2804.652 1697.323 2800.174 1704.211 2800.731 1712.287zM2755.18 1708.017c-6.462-3.076-37.952-2.907-31.276-7.617 6.674-4.711 30.409-1.346 32.529 4.008C2758.552 1709.761 2755.18 1708.017 2755.18 1708.017zM2764.149 1696.672c-6.462-3.079-37.953-2.907-31.279-7.618 6.679-4.714 30.412-1.351 32.531 4.006C2767.522 1698.412 2764.149 1696.672 2764.149 1696.672zM2773.117 1685.323c-6.463-3.079-37.953-2.909-31.277-7.621 6.674-4.711 30.41-1.346 32.531 4.008C2776.488 1687.064 2773.117 1685.323 2773.117 1685.323z"></path>
    <path fill="#11405C" d="M2831.355,1749.497c-0.009-0.109-63.374,7.314-98.935,9.573c-3.973,0.251-7.892-9.707-43.509-7.754
						c-24.685,0.994-32.491,9.372-33.295,10.296c-1.508,1.73-3.559,17.278,3.492,18.026c7.052,0.748,167.197-8.778,169.713-11.703
						C2833.797,1762.154,2831.355,1749.497,2831.355,1749.497z"></path>
  </g>
  <polygon fill="#2F627C" points="2887.81 486.341 2842.557 1619.145 2740.788 1616.068 2603.932 682.306 2532.704 516.854"></polygon>
  <polygon fill="#D7A28E" points="2440.715 41.226 2408.497 128.635 2179.929 384.119 2216.428 422.273 2493.479 237.52 2535.226 56.916"></polygon>
  <path fill="#C18C7C" d="M2535.219,56.892l-41.777,180.625l-277.061,184.777l-36.409-38.136l119.992-134.139
				c16.516,20.841,41.331,51.906,45.169,55.274c5.754,4.953,94.181-43.637,96.549-58.272c2.272-14.534-13.39-15.689-27.422-22.667
				c-13.938-7.079,21.721-3.762,29.411-14.503c7.787-10.744,11.797-86.839,6.812-94.653c-3.539-5.722-20.247-16.306-29.042-21.63
				l19.27-52.375L2535.219,56.892z"></path>
  <path fill="#F2CD33" d="M2514.601-108.937l-33.771,20.586c0,0-81.18,146.721-74.306,156.516
				c6.874,9.796,112.419,44.418,112.419,44.418l29.559-101.056L2514.601-108.937z"></path>
  <path fill="#DBA12C" d="M2531.848-2.452c-12.205,11.969-26.208,22.115-40.687,31.146c-25.24,15.742-54.53,31.031-84.723,35.026
				c-0.398,2.139-0.428,3.715,0.085,4.446c6.874,9.795,112.42,44.418,112.42,44.418l29.558-101.057l-6.909-24.553
				C2538.519-9.383,2535.302-5.84,2531.848-2.452z"></path>
  <path fill="#F2CD33" d="M2419.416,541.767c0,0,443.421,32.397,479.696-22.209c36.276-54.607-172.37-648.615-197.448-657.389
				c-25.078-8.774-187.063,28.895-187.063,28.895S2440.762,307.865,2419.416,541.767z"></path>
  <path fill="#DBA12C" d="M2500.314-25.887c0 0-42.846 309.213-49.594 314.691-6.749 5.478 35.439-293.974 49.478-317.708M2478.513 545.378c-36.094-1.932-59.096-3.587-59.096-3.587 1.655-17.927 3.561-36.937 5.725-56.836C2439.668 497.185 2469.199 523.967 2478.513 545.378zM2899.115 519.571c-8.585 12.825-39.514 20.844-81.989 25.598 5.576-17.492 13.125-44.625 21.312-83.105 16.71-78.344-2.862-166.126-17.095-142.74-14.139 23.287-103.613 80.214-174.741 101.393-60.797 18.243-185.601 47.34-220.433 55.414 2.203-18.926 4.573-38.54 7.121-58.649 90.295-48.268 306.746-164.147 308.096-167.127 1.803-3.877 40.195-181.151 40.195-181.151l10.388 11.217C2854.158 258.717 2920.892 486.717 2899.115 519.571z"></path>
  <g>
    <path fill="#11405C" d="M2589.273-316.487c0,0,33.549,49.808,29.426,67.585c-4.124,17.776-19.414,18.832-19.414,18.832
					s23.685,29.858-5.137,40.576c-28.823,10.717-43.497,4.006-43.497,4.006s-74.028-108.021-37.983-131.43
					C2548.713-340.327,2557.478-362.353,2589.273-316.487z"></path>
    <path fill="#D7A28E" d="M2535.454-165.928l21.976,76.493c0,0,56.347,33.704,72.643-43.244l-51.772-88.989L2535.454-165.928z"></path>
    <path fill="#DBA12C" d="M2538.875-114.374c0,0,8.479,30.796,15.568,38.133c7.089,7.337,43.217-0.858,56.382-2.164
					c13.166-1.306,30.187-48.509,28.44-54.274c-2.897-9.56-20.216-18.947-20.216-18.947s9.386,45.715-25.602,50.261
					c-34.989,4.547-35.711,0.97-36.326-1.81c-0.615-2.78-12.233-32.253-12.233-32.253L2538.875-114.374z"></path>
    <path fill="#C18C7C" d="M2576.935-168.433c-5.967,13.561-20.443,43.849-28.053,46.353l-20.894-69.835l50.313-29.753
						C2578.301-221.668,2578.675-172.387,2576.935-168.433z"></path>
    <path fill="#D7A28E" d="M2439.88-292.087c0,0,1.709,168.174,62.564,159.051c49.535-7.427,101.421-67.503,84.668-121.698
				c-6.063-19.613,7.589-79.039-37.99-82.831C2503.541-341.355,2439.88-292.087,2439.88-292.087z"></path>
    <path fill="#11405C" d="M2533.833-316.91c0,0-135.643,96.206-133.038,24.104c2.605-72.099,45.83-56.053,45.83-56.053
				s-31.168-6.573-18.486-22.395c12.682-15.823,35.374,12.055,98.651-2.52c47.459-10.929,71.037,44.157,70.083,86.219
				c-0.318,14.021-6.49,44.473-9.155,34.794c-3.373-12.249-8.915-30.698-18.196-34.03c-1.812-0.651-2.091,28.465-4.013,27.612
				C2548.281-266.825,2528.204-283.105,2533.833-316.91z"></path>
    <path fill="#D7A28E" d="M2569.311-280.691c0,0,5.772-10.104,18.849-8.708c14.282,1.523,8.684,38.363,0.613,41.005
					c-7.793,2.552-10.686-1.275-12.507-7.39C2573.148-266.26,2569.311-280.691,2569.311-280.691z"></path>
    <path fill="#11405C" d="M2583.543-281.298c-2.954,3.766-7.229,15.078-0.926,21.179c0,0-1.296-4.867,0.527-8.507l5.742-4.673
					l-6.63,1.224L2583.543-281.298z"></path>
    <g>
      <path fill="#C18C7C" d="M2544.647-225.873c1.417 3.794-2.086 8.609-7.824 10.753-5.737 2.143-11.54.809-12.957-2.985-1.417-3.792 2.083-8.606 7.824-10.753C2537.428-231.001 2543.228-229.664 2544.647-225.873zM2477.526-212.533c1.417 3.792-2.083 8.605-7.824 10.749-5.737 2.146-11.539.809-12.957-2.985-1.416-3.792 2.087-8.606 7.824-10.75C2470.306-217.664 2476.106-216.327 2477.526-212.533z"></path>
      <path fill="#11405C" d="M2494.606-210.709c-.574.111-1.153.138-1.739.086-3.713-.345-5.964-4.017-6.058-4.171-.276-.457-.317-1.017-.117-1.51 4.187-10.281.225-22.307.186-22.425-.298-.886.178-1.842 1.061-2.139.906-.313 1.842.178 2.139 1.061.18.527 4.184 12.702.083 23.898.644.777 1.767 1.813 3.032 1.925 1.178.098 2.462-.602 3.797-2.103.621-.695 1.689-.758 2.382-.14.698.621.76 1.687.14 2.385C2497.946-212.086 2496.303-211.036 2494.606-210.709zM2477.489-185.001c0 0 20.566 4.919 39.854-9.026C2523.849-186.153 2503.163-158.384 2477.489-185.001zM2458.002-233.136c1 5.179 4.656 8.804 8.189 8.122 3.533-.682 5.618-5.415 4.618-10.595-.991-5.139-4.696-8.797-8.229-8.115-1.566.303-2.848 1.425-3.661 3.039 1.234.137 2.238 1.025 2.479 2.27.302 1.566-.702 3.051-2.268 3.353-.442.085-.906.05-1.346-.074C2457.787-234.469 2457.871-233.819 2458.002-233.136zM2515.615-244.257c1 5.18 4.656 8.804 8.189 8.122 3.533-.681 5.578-5.407 4.578-10.586-.991-5.139-4.656-8.805-8.189-8.123-1.566.303-2.856 1.384-3.709 3.006 1.307.081 2.399.995 2.647 2.28.302 1.566-.702 3.05-2.268 3.353-.522.101-1.027.073-1.482-.13C2515.385-245.67 2515.484-244.94 2515.615-244.257z"></path>
      <path fill="#C18C7C" d="M2504.015-158.267c-3.276,0.632-5.5,0.558-5.733,0.544c-0.874-0.035-1.544-0.767-1.508-1.64
					c0.037-0.868,0.777-1.547,1.641-1.514c0.138,0.015,14.326,0.405,24.6-12.676c0.563-0.67,1.542-0.79,2.222-0.26
					c0.681,0.54,0.801,1.536,0.266,2.222C2518.356-162.51,2509.632-159.351,2504.015-158.267z"></path>
    </g>
    <path fill="#11405C" d="M2476.583-252.915c0 0-28.504 4.03-31.883 1.797-3.378-2.232 4.326-9.801 17.38-9.056C2475.132-259.43 2479.796-253.636 2476.583-252.915zM2501.736-257.771c0 0 27.957-6.867 30.262-10.198 2.305-3.329-7.663-7.487-19.501-1.938C2500.659-264.357 2498.487-257.243 2501.736-257.771z"></path>
  </g>
  <g>
    <polygon fill="#FFC439" points="1856.371 502.901 2058.209 345.85 2299.283 269.631 2115.207 453.184"></polygon>
    <polygon fill="#DBA12C" points="2232.553 679.363 2425.621 519.562 2299.283 269.631 2100.339 424.529"></polygon>
    <polygon fill="#CDEEFF" points="1946.686 432.626 2010.04 383.905 2227.327 323.858 2254.317 373.298 2230.758 395.316 2221.614 389.56 2224.601 402.564 2206.99 420.152 2179.973 366.289" opacity=".5"></polygon>
    <polygon fill="#CDEEFF" points="2325.321 602.708 2306.119 563.472 2318.425 554.238 2323.748 557.586 2322.05 550.107 2352.696 522.773 2376.188 560.557" opacity=".5"></polygon>
    <polygon fill="#FFC439" points="1856.371 502.901 1989.206 758.145 2232.553 679.363 2100.339 424.529"></polygon>
    <path fill="#DBA12C" d="M1856.371,502.901l243.968-78.371c0,0-67.14,42.942-118.496,57.519
			C1930.487,496.625,1856.371,502.901,1856.371,502.901z"></path>
  </g>
  <g>
    <path fill="#D7A28E" d="M2364.271,380.724c-25.534,5.919-45.147,21.557-52.976,28.585c-13.27,11.952-46.236,68.33-46.236,68.33
			s6.842,5.782,10.445,6.4c5.855,1.004,14.985-5.257,22.479-14.655c-3.942,7.401-9.838,21.649-9.838,21.649
			s9.507,4.523,13.146,4.023c4.873-0.668,12.42-6.909,16.947-12.991c-2.233,5.532-6.554,14.664-6.554,14.664
			s11.251,3.899,14.783,2.859c6.716-1.978,14.245-11.355,20.255-19.844c-3.482,6.741-6.705,19.571-6.705,19.571
			s10.727,1.464,13.957,0.602c12.551-3.352,34.61-36.44,34.61-36.44c36.124,9.992,50.131-9.833,64.414-18.759
			c3.424-2.201-34.147-65.86-34.147-65.86S2383.323,376.266,2364.271,380.724z"></path>
    <path fill="#C18C7C" d="M2323.536 433.161c.249.26-1.359 2.152-3.792 5.314-2.428 3.17-5.693 7.611-9.118 12.665-6.868 10.093-12.068 18.561-12.643 18.244-.566-.302 3.753-9.354 10.702-19.568 3.461-5.11 6.999-9.475 9.796-12.421C2321.288 434.45 2323.339 432.95 2323.536 433.161zM2341.851 447.045c.258.225-1.071 2.184-3.196 5.34-2.312 3.483-5.124 7.72-8.233 12.403-6.398 9.721-11.619 17.609-12.184 17.277-.554-.324 3.783-8.784 10.223-18.569 3.217-4.893 6.375-9.171 8.868-12.111C2339.825 448.444 2341.621 446.842 2341.851 447.045zM2358.223 462.479c.548.348-1.991 5.326-5.67 11.119-3.679 5.793-7.106 10.207-7.654 9.86-.548-.348 1.991-5.326 5.67-11.119C2354.249 466.545 2357.675 462.132 2358.223 462.479z"></path>
  </g>
  <path fill="#D7A28E" d="M2668.997,60.503l7.714,146.511l-270.668,181.153l46.954,56.551c0,0,304.202-121.749,340.282-148.649
		c36.08-26.9,0.45-210.742,0.45-210.742L2668.997,60.503z"></path>
  <path fill="#C18C7C" d="M2685.037,213.707c-2.543-11.522,59.341,16.347,55.732,24.313
		C2737.162,245.988,2688.196,228.015,2685.037,213.707z"></path>
  <path fill="#F2CD33" d="M2672.292-89.438c0,0-17.992,165.771-14.17,174.706c3.822,8.934,157.667,30.852,154.915,17.354
		c-20.002-98.114-50.593-200.16-50.593-200.16l-60.779-40.293C2701.664-137.831,2682.895-115.36,2672.292-89.438z"></path>
  <path fill="#DBA12C" d="M2813.027,102.648c2.762,13.464-151.04-8.454-154.897-17.384c-1.709-3.84,0.723-37.121,4.006-73.657
		c1.667,23.072,4.612,43.847,10.104,49.592c13.937,14.691,90.919,26.476,102.597,12.851c8.034-9.385,3.77-82.337,0.302-126.909
		C2785.902-14.031,2801.249,45.021,2813.027,102.648z"></path>
  <g>
    <polygon fill="#91C4F6" points="1823.569 1355.491 1396.231 1312.844 1429.784 698.878 1800.837 702.551"></polygon>
    <polygon fill="#549BEC" points="1800.837 702.551 1818.68 715.594 1830.029 702.841 1910.178 1309.33 1878.138 1319.299 1823.569 1355.491"></polygon>
    <path fill="#549BEC" d="M1531.558 787.746c.679 8.802-3.868 16.331-10.155 16.815-6.287.485-11.934-6.258-12.613-15.06-.679-8.802 3.868-16.331 10.155-16.815C1525.233 772.201 1530.88 778.943 1531.558 787.746zM1674.911 783.633c.658 8.536-3.751 15.836-9.847 16.306-6.097.47-11.573-6.068-12.231-14.604-.658-8.536 3.751-15.836 9.848-16.306C1668.777 768.559 1674.252 775.098 1674.911 783.633z"></path>
    <path fill="#CDEEFF" d="M1513.845,788.72c-2.313,25.167-4.627,50.334-6.94,75.501c-1.988,21.62-5.026,43.517-4.135,65.269
				c1.601,39.112,23.037,70.587,60.363,83.78c18.935,6.693,39.405,8.004,59.295,6.242c14.898-1.32,32.344-3.965,40.775-17.936
				c9.557-15.837-2.301-30.112-13.74-40.92c-13.384-12.646-43.173-21.765-43.676-42.902c-0.344-14.474,10-26.199,18.484-36.75
				c6.981-8.681,13.539-17.648,19.464-27.086c10.672-17.001,28.021-42.701,24.001-63.846c-1.038-5.462-9.76-4.852-8.71,0.672
				c3.412,17.95-11.949,40.975-21.015,55.897c-9.528,15.68-22.299,28.831-32.128,44.2c-7.395,11.564-12.005,26.352-6.105,39.584
				c5.902,13.238,20.277,18.956,31.457,26.699c7.866,5.449,15.579,12.038,21.38,19.682c9.695,12.775,3.547,25.012-10.394,30.33
				c-17.439,6.652-41.061,5.58-59.042,2.374c-41.092-7.327-69.3-36.532-71.618-78.653c-1.231-22.375,2.087-45.01,4.132-67.255
				c2.243-24.405,4.487-48.809,6.73-73.214C1522.934,784.833,1514.36,783.124,1513.845,788.72L1513.845,788.72z"></path>
    <g>
      <polygon fill="#FFC439" points="2241.195 986.725 1958.724 926.713 1676.253 968.159 1953.75 1063.851"></polygon>
      <polygon fill="#DBA12C" points="1946.072 1351.47 1671.152 1284.339 1676.253 968.159 1954.722 1027.412"></polygon>
      <polygon fill="#CDEEFF" points="2114.8 959.872 2026.419 941.619 1776.086 987.763 1773.047 1051.293 1807.836 1062.044 1814.287 1051.687 1817.664 1066.37 1844.226 1075.553 1845.112 1007.515" opacity=".5"></polygon>
      <polygon fill="#CDEEFF" points="1814.038 1319.344 1814.197 1270.019 1797.143 1266.708 1793.388 1272.733 1791.424 1264.299 1746.815 1251.643 1741.583 1301.608" opacity=".5"></polygon>
      <polygon fill="#FFC439" points="2241.195 986.725 2232.115 1311.508 1946.072 1351.47 1954.722 1027.412"></polygon>
      <path fill="#DBA12C" d="M2241.195,986.725l-286.473,40.687c0,0,89.377,10.516,148.733,0
				C2162.812,1016.896,2241.195,986.725,2241.195,986.725z"></path>
      <g>
        <polygon fill="#FFC439" points="1845.112 1062.874 1621.612 1015.39 1398.113 1048.183 1617.677 1123.897"></polygon>
        <polygon fill="#DBA12C" points="1611.601 1351.47 1394.078 1298.354 1398.113 1048.183 1618.446 1095.065"></polygon>
        <polygon fill="#CDEEFF" points="1745.104 1041.626 1675.175 1027.184 1477.104 1063.695 1474.699 1113.962 1502.225 1122.468 1507.33 1114.273 1510.001 1125.89 1531.018 1133.157 1531.719 1079.323" opacity=".5"></polygon>
        <polygon fill="#CDEEFF" points="1507.133 1326.051 1507.259 1287.024 1493.765 1284.403 1490.794 1289.171 1489.24 1282.498 1453.944 1272.484 1449.804 1312.018" opacity=".5"></polygon>
        <polygon fill="#FFC439" points="1845.112 1062.874 1837.927 1319.851 1611.601 1351.47 1618.446 1095.065"></polygon>
        <path fill="#DBA12C" d="M1845.112,1062.874l-226.665,32.192c0,0,70.718,8.32,117.682,0
				C1783.092,1086.746,1845.112,1062.874,1845.112,1062.874z"></path>
      </g>
    </g>
    <g>
      <path fill="#2F627C" d="M2314.854,889.198V861.8h-126.606l36.508-213.826h-46.042l-30.42,213.826h-205.189l14.199-213.826h-46.336
			l-8.11,213.826h-205.044l-8.11-213.826h-46.333l14.198,213.826H1452.38l-30.419-213.826h-46.045l36.507,213.826h-126.601v27.398
			h131.278l31.036,181.775h-147.523v27.399h152.2l34.614,202.737h27.447l-28.841-202.737h187.244l13.462,202.737h27.736
			l-7.689-202.737h187.099l-7.69,202.737h27.736l13.463-202.737h187.244l-28.842,202.737h27.445l34.615-202.737h152.206v-27.399
			h-147.528l31.036-181.775H2314.854z M1482.136,1070.973l-25.859-181.775h203.111l12.07,181.775H1482.136z M1705.746,1070.973
			l-6.894-181.775h202.965l-6.894,181.775H1705.746z M2118.536,1070.973h-189.323l12.071-181.775h203.111L2118.536,1070.973z"></path>
      <path fill="#11405C" d="M1204.697,676.52l113.371,615.208c4.745,25.747,27.194,44.438,53.374,44.438h857.786
			c26.18,0,48.629-18.691,53.374-44.438l113.371-615.208c6.146-33.352-19.46-64.109-53.374-64.109H1258.072
			C1224.159,612.411,1198.552,643.168,1204.697,676.52z M1322.156,665.762h956.358c33.913,0,59.519,30.755,53.374,64.107
			l-93.701,508.511c-4.744,25.746-27.193,44.437-53.374,44.437h-768.958c-26.18,0-48.63-18.692-53.374-44.437l-93.699-508.511
			C1262.638,696.517,1288.244,665.762,1322.156,665.762z"></path>
      <path fill="#2F627C" d="M2270.202,1332.943c0,0-634.852,0.07-849.091,0.097c-40.613,0.007-75.657-28.421-84.06-68.154
			l-160.907-760.775l-1.281-5.444c-6.68-28.371-31.935-48.465-61.082-48.595l-219.19-0.978l-2.667,53.75l215.04,1.064
			c8.19,0.042,15.284,5.691,17.155,13.663l187.605,821.527c-61.035,18.327-105.09,75.901-102.701,143.442
			c2.769,78.272,69.621,139.114,147.944,139.114h592.39c0.028,0,0.053-0.009,0.079-0.009h56.705
			c17.25,0,31.127-14.435,30.213-31.884c-0.828-15.817-16.088-28.63-31.923-28.63h-54.768c-0.103-0.001-0.201-0.03-0.305-0.03
			h-593.271c-46.154,0-85.744-36.107-86.588-82.253c-0.86-47.013,36.992-85.391,83.807-85.391h915.188
			c15.838,0,31.097-12.815,31.923-28.632C2301.327,1347.375,2287.449,1332.943,2270.202,1332.943z"></path>
      <path fill="#11405C" d="M2072.773,1660.673c-17.44-23.714-45.543-39.019-77.284-39.019c-31.742,0-59.845,15.306-77.285,39.019
				c-11.793,15.934-18.693,35.629-18.693,56.959c0,53.07,42.907,95.976,95.978,95.976c53.07,0,96.103-42.906,96.103-95.976
				C2091.592,1696.302,2084.566,1676.607,2072.773,1660.673z M1995.489,1774.715c-31.491,0-56.96-25.594-56.96-57.082
				c0-31.365,25.469-56.959,56.96-56.959c31.49,0,57.085,25.594,57.085,56.959
				C2052.574,1749.121,2026.979,1774.715,1995.489,1774.715z"></path>
      <path fill="#FFF" d="M2052.574,1717.633c0,31.488-25.595,57.082-57.085,57.082c-31.491,0-56.96-25.594-56.96-57.082
				c0-31.365,25.469-56.959,56.96-56.959C2026.979,1660.673,2052.574,1686.267,2052.574,1717.633z"></path>
      <path fill="#11405C" d="M2017,1717.626c0,11.889-9.625,21.554-21.516,21.554c-11.852,0-21.441-9.665-21.441-21.554
				c0-11.815,9.589-21.482,21.441-21.482C2007.375,1696.144,2017,1705.811,2017,1717.626z"></path>
      <g>
        <path fill="#11405C" d="M1598.26,1660.673c-17.438-23.714-45.542-39.019-77.284-39.019c-31.741,0-59.845,15.306-77.283,39.019
				c-11.793,15.934-18.694,35.629-18.694,56.959c0,53.07,42.908,95.976,95.978,95.976c53.07,0,96.103-42.906,96.103-95.976
				C1617.08,1696.302,1610.054,1676.607,1598.26,1660.673z M1520.977,1774.715c-31.491,0-56.959-25.594-56.959-57.082
				c0-31.365,25.468-56.959,56.959-56.959c31.491,0,56.96,25.594,56.96,56.959
				C1577.936,1749.121,1552.468,1774.715,1520.977,1774.715z"></path>
        <path fill="#FFF" d="M1577.936,1717.633c0,31.488-25.468,57.082-56.96,57.082c-31.491,0-56.959-25.594-56.959-57.082
				c0-31.365,25.468-56.959,56.959-56.959C1552.468,1660.673,1577.936,1686.267,1577.936,1717.633z"></path>
        <path fill="#11405C" d="M1542.473,1717.626c0,11.889-9.627,21.554-21.516,21.554c-11.852,0-21.441-9.665-21.441-21.554
				c0-11.815,9.589-21.482,21.441-21.482C1532.846,1696.144,1542.473,1705.811,1542.473,1717.626z"></path>
      </g>
      <path fill="#11405C" d="M798.262,498.716c-0.428,10.298,7.714,18.611,17.791,18.329l220.934-6.197l30.995-0.986
			c6.859-0.22,11.955-8.421,10.653-17.024l-5.536-36.588c-1.001-6.609-5.484-11.513-10.751-11.692l0,0l-244.183-10.069
			c-9.543-0.392-17.532,7.012-17.936,16.763L798.262,498.716z"></path>
    </g>
  </g>
  <g>
    <path fill="#CDEEFF" d="M2219.042-303.378v508.225c0,43.747-35.408,79.236-79.157,79.236h-898.034
		c-41.231,0-75.301-31.712-78.842-72.234c0-61.687-0.315-81.595-0.315-81.595v-433.632c0-43.749,35.487-79.157,79.157-79.157
		h898.034C2183.634-382.535,2219.042-347.127,2219.042-303.378z"></path>
    <path fill="#FFF" d="M1625.98-29.776v154.91c0,26.083-21.088,47.172-47.091,47.172H1337.01
					c-26.082,0-47.17-21.089-47.17-47.172V-75.439c0-26.004,21.088-47.092,47.17-47.092h205.172
					c-1.109,3.805-3.964,7.056-8.245,8.325c-11.574,3.408-11.574,19.819,0,23.228c8.166,2.458,11.337,12.289,6.184,19.028
					c-1.823,2.299-2.537,4.835-2.537,7.373c0,7.61,7.61,14.507,16.173,11.415c8.007-2.853,16.411,3.251,16.172,11.733
					c-0.317,12.051,15.301,17.125,22.119,7.215c2.379-3.567,6.184-5.312,9.99-5.312c3.805,0,7.61,1.744,9.988,5.312
					C1615.515-29.141,1621.224-28.031,1625.98-29.776z"></path>
    <polygon fill="#FFC439" points="1349.755 -27.685 1456.956 -50.46 1564.157 -34.731 1458.844 1.585"></polygon>
    <polygon fill="#DBA12C" points="1461.757 110.741 1566.093 85.264 1564.157 -34.731 1458.475 -12.244"></polygon>
    <polygon fill="#CDEEFF" points="1397.723 -37.876 1431.265 -44.803 1526.269 -27.291 1527.423 -3.18 1514.22 .899 1511.771 -3.031 1510.49 2.541 1500.409 6.026 1500.073 -19.795" opacity=".5"></polygon>
    <polygon fill="#CDEEFF" points="1511.866 98.548 1511.805 79.829 1518.277 78.572 1519.703 80.859 1520.448 77.658 1537.378 72.854 1539.364 91.817" opacity=".5"></polygon>
    <polygon fill="#FFC439" points="1349.755 -27.685 1353.2 95.574 1461.757 110.741 1458.475 -12.244"></polygon>
    <path fill="#DBA12C" d="M1349.755-27.685l108.72,15.441c0,0-33.92,3.991-56.447,0
					C1379.502-16.235,1349.755-27.685,1349.755-27.685z"></path>
    <path fill="#FFF" d="M1648.403-110.494L1648.403-110.494c-5.561-1.638-7.741-8.349-4.205-12.943
				c5.017-6.518-1.552-15.559-9.301-12.802l0,0c-5.462,1.943-11.171-2.205-11.01-7.999l0,0c0.228-8.222-10.401-11.675-15.049-4.89
				c-3.276,4.782-10.333,4.782-13.609,0l0,0c-4.649-6.785-15.277-3.332-15.05,4.89l0,0c0.161,5.794-5.548,9.942-11.01,7.999l0,0
				c-7.749-2.757-14.318,6.284-9.301,12.802l0,0c3.536,4.594,1.354,11.305-4.205,12.943c-7.89,2.325-7.89,13.5,0,15.824
				c5.56,1.638,7.741,8.35,4.205,12.943l0,0c-5.017,6.518,1.552,15.56,9.301,12.802c5.462-1.943,11.171,2.205,11.01,7.999
				c-0.227,8.222,10.401,11.675,15.05,4.89l0,0c3.276-4.782,10.333-4.782,13.609,0c4.649,6.785,15.277,3.332,15.049-4.89
				c-0.16-5.794,5.549-9.942,11.01-7.999c7.749,2.757,14.318-6.284,9.301-12.802c-3.536-4.593-1.355-11.305,4.205-12.943l0,0
				C1656.293-96.994,1656.293-108.169,1648.403-110.494z"></path>
    <g>
      <path fill="#CDEEFF" d="M1600.082-84.34c-3.843-0.335-8.059-1.893-10.895-4.23l3.277-4.337c2.958,2.06,5.916,3.45,9.318,3.45
					c4.091,0,6.106-1.78,6.106-4.782c0-7.34-17.127-6.285-17.127-16.74c0-5.171,3.654-8.844,9.321-9.731v-5.674h5.037v5.561
					c4.029,0.448,6.798,2.169,9.129,4.337l-3.715,3.727c-2.33-1.888-4.281-2.948-7.303-2.948c-3.402,0-5.478,1.558-5.478,4.451
					c0,6.67,17.127,5.339,17.127,16.573c0,5.28-3.528,9.174-9.759,10.175v5.728h-5.037V-84.34z"></path>
    </g>
    <g>
      <path fill="#FFF" d="M2063.556-29.776v154.91c0,26.083-21.088,47.172-47.091,47.172h-241.878
					c-26.082,0-47.17-21.089-47.17-47.172V-75.439c0-26.004,21.088-47.092,47.17-47.092h205.172
					c-1.109,3.805-3.964,7.056-8.245,8.325c-11.574,3.408-11.574,19.819,0,23.228c8.166,2.458,11.337,12.289,6.184,19.028
					c-1.823,2.299-2.537,4.835-2.537,7.373c0,7.61,7.61,14.507,16.173,11.415c8.007-2.853,16.411,3.251,16.172,11.733
					c-0.317,12.051,15.301,17.125,22.12,7.215c2.378-3.567,6.183-5.312,9.989-5.312c3.805,0,7.611,1.744,9.988,5.312
					C2053.092-29.141,2058.8-28.031,2063.556-29.776z"></path>
      <polygon fill="#FFC439" points="1787.331 -27.685 1894.532 -50.46 2001.733 -34.731 1896.42 1.585"></polygon>
      <polygon fill="#DBA12C" points="1899.334 110.741 2003.669 85.264 2001.733 -34.731 1896.051 -12.244"></polygon>
      <polygon fill="#CDEEFF" points="1835.299 -37.876 1868.841 -44.803 1963.845 -27.291 1964.999 -3.18 1951.796 .899 1949.347 -3.031 1948.067 2.541 1937.985 6.026 1937.65 -19.795" opacity=".5"></polygon>
      <polygon fill="#CDEEFF" points="1949.442 98.548 1949.381 79.829 1955.853 78.572 1957.279 80.859 1958.024 77.658 1974.954 72.854 1976.94 91.817" opacity=".5"></polygon>
      <polygon fill="#FFC439" points="1787.331 -27.685 1790.776 95.574 1899.334 110.741 1896.051 -12.244"></polygon>
      <path fill="#DBA12C" d="M1787.331-27.685l108.72,15.441c0,0-33.919,3.991-56.447,0
					C1817.078-16.235,1787.331-27.685,1787.331-27.685z"></path>
      <path fill="#FFF" d="M2085.979-110.494L2085.979-110.494c-5.56-1.638-7.741-8.349-4.205-12.943
				c5.017-6.518-1.552-15.559-9.301-12.802l0,0c-5.462,1.943-11.17-2.205-11.01-7.999l0,0c0.228-8.222-10.401-11.675-15.049-4.89
				c-3.276,4.782-10.333,4.782-13.609,0l0,0c-4.649-6.785-15.277-3.332-15.049,4.89l0,0c0.16,5.794-5.549,9.942-11.01,7.999l0,0
				c-7.749-2.757-14.318,6.284-9.301,12.802l0,0c3.535,4.594,1.355,11.305-4.205,12.943c-7.89,2.325-7.89,13.5,0,15.824
				c5.56,1.638,7.741,8.35,4.205,12.943l0,0c-5.017,6.518,1.552,15.56,9.301,12.802c5.462-1.943,11.171,2.205,11.01,7.999
				c-0.228,8.222,10.401,11.675,15.049,4.89l0,0c3.276-4.782,10.333-4.782,13.609,0c4.649,6.785,15.277,3.332,15.049-4.89
				c-0.16-5.794,5.549-9.942,11.01-7.999c7.749,2.757,14.318-6.284,9.301-12.802c-3.535-4.593-1.355-11.305,4.205-12.943l0,0
				C2093.869-96.994,2093.869-108.169,2085.979-110.494z"></path>
      <g>
        <path fill="#CDEEFF" d="M2037.659-84.34c-3.843-0.335-8.06-1.893-10.895-4.23l3.277-4.337c2.958,2.06,5.917,3.45,9.318,3.45
					c4.091,0,6.106-1.78,6.106-4.782c0-7.34-17.126-6.285-17.126-16.74c0-5.171,3.653-8.844,9.321-9.731v-5.674h5.037v5.561
					c4.03,0.448,6.798,2.169,9.129,4.337l-3.715,3.727c-2.33-1.888-4.281-2.948-7.303-2.948c-3.402,0-5.478,1.558-5.478,4.451
					c0,6.67,17.127,5.339,17.127,16.573c0,5.28-3.528,9.174-9.76,10.175v5.728h-5.037V-84.34z"></path>
      </g>
    </g>
    <g>
      <path fill="#FFF" d="M1422.28-233.767h-26.237l-4.341 12.552h-13.87l23.686-65.964h15.384l23.686 65.964h-13.969L1422.28-233.767zM1409.16-271.891l-9.529 27.555h19.061L1409.16-271.891zM1507.246-254.056c0 19.913-13.681 32.842-34.728 32.842h-23.025v-65.871h23.025C1493.565-287.086 1507.246-274.061 1507.246-254.056zM1472.046-232.445c13.873 0 21.707-7.926 21.707-21.611 0-13.681-7.834-21.892-21.707-21.892h-9.34v43.503H1472.046zM1574.947-254.056c0 19.913-13.685 32.842-34.728 32.842h-23.026v-65.871h23.026C1561.261-287.086 1574.947-274.061 1574.947-254.056zM1539.746-232.445c13.873 0 21.707-7.926 21.707-21.611 0-13.681-7.834-21.892-21.707-21.892h-9.34v43.503H1539.746zM1603.873-287.086h48.318v10.666h-17.555v55.206h-13.208v-55.206h-17.555V-287.086zM1692.421-220.553c-18.592 0-33.783-13.966-33.783-33.783 0-19.725 15.192-33.691 33.783-33.691 18.78 0 33.691 13.966 33.691 33.691C1726.112-234.519 1711.104-220.553 1692.421-220.553zM1692.421-232.349c11.891 0 20.101-8.591 20.101-21.988 0-13.4-8.211-21.799-20.101-21.799-11.983 0-20.194 8.399-20.194 21.799C1672.227-240.94 1680.438-232.349 1692.421-232.349zM1788.636-287.935c14.627 0 26.518 7.833 30.952 21.327h-15.191c-3.116-6.321-8.78-9.436-15.857-9.436-11.511 0-19.721 8.399-19.721 21.8 0 13.304 8.21 21.799 19.721 21.799 7.077 0 12.74-3.116 15.857-9.532h15.191c-4.433 13.589-16.325 21.327-30.952 21.327-18.968 0-33.406-13.87-33.406-33.595C1755.23-273.965 1769.669-287.935 1788.636-287.935zM1871.344-233.767h-26.238l-4.341 12.552h-13.87l23.687-65.964h15.383l23.686 65.964h-13.969L1871.344-233.767zM1858.224-271.891l-9.528 27.555h19.06L1858.224-271.891zM1923.28-287.086c15.856 0 23.783 9.155 23.783 20.197 0 8.022-4.434 16.137-15.007 18.968l15.76 26.706h-15.288l-14.53-25.669h-6.228v25.669h-13.213v-65.871H1923.28zM1922.808-276.136h-11.038v19.344h11.038c7.361 0 10.665-3.869 10.665-9.816C1933.473-272.455 1930.169-276.136 1922.808-276.136zM1955.588-287.086h48.318v10.666h-17.554v55.206h-13.209v-55.206h-17.555V-287.086z"></path>
    </g>
  </g>
  <g>
    <path fill="#FFC439" d="M2874.72-344.822l-90.331,25.819l-1.278,41.742l49.233,172.384l12.244-3.45l90.296-25.821l12.216-3.499
				l-49.282-172.354L2874.72-344.822z M2837.706-303.25c-5.297,1.517-10.803-1.596-12.339-6.869
				c-1.505-5.335,1.532-10.897,6.885-12.424c5.272-1.503,10.877,1.553,12.417,6.889
				C2846.14-310.321,2843.06-304.777,2837.706-303.25z"></path>
    <path fill="#DBA12C" d="M2845.133-254.198l-2.031-7.078l12.259-3.48l2.08,7.048c11.266-0.809,19.073,5.802,22.739,18.771
					l0.881,2.974l-14.229,4.083l-1.156-3.947c-1.932-6.852-5.417-8.68-10.164-7.288c-4.775,1.344-6.761,4.724-4.839,11.56
					c5.62,19.633,35.291,12.199,43.068,39.577c3.67,12.923,0.451,22.885-9.564,28.087l2.009,6.981l-12.3,3.526l-2.018-6.998
					c-11.412,0.895-19.212-5.872-22.911-18.844l-1.829-6.563l14.14-4.01l2.133,7.476c1.981,6.823,5.68,8.459,10.428,7.067
					c4.8-1.359,7.119-4.671,5.163-11.508c-5.614-19.681-35.275-12.23-43.039-39.529
					C2832.263-239.137,2835.261-248.861,2845.133-254.198z"></path>
    <g>
      <path fill="#F2CD33" d="M2100.128-420.167l-3.786,180.774c0,0,119.633,36.677,122.947,31.957
			c3.315-4.72,44.227-182.104,44.227-182.104L2100.128-420.167z"></path>
      <path fill="#DBA12C" d="M2169.76-352.712c8.223,2.004,12.367,8.333,8.315,17.433c-3.966,9.121-12.201,12.433-20.425,10.429
				c-8.31-2.025-12.453-8.354-8.488-17.476C2153.215-351.426,2161.536-354.716,2169.76-352.712z M2197.163-345.116l14.283,3.481
				l-59.001,50.182l-14.284-3.481L2197.163-345.116z M2159.463-339.815c-1.663,3.813-0.894,5.926,1.703,6.559
				c2.597,0.633,5.031-0.699,6.693-4.512c1.663-3.813,0.807-5.947-1.789-6.58C2163.474-344.981,2161.126-343.628,2159.463-339.815z
				 M2192.132-311.678c8.224,2.004,12.28,8.312,8.229,17.413c-3.965,9.121-12.201,12.433-20.425,10.429
				c-8.224-2.004-12.367-8.333-8.315-17.434C2175.586-310.391,2183.908-313.682,2192.132-311.678z M2181.749-298.801
				c-1.663,3.813-0.894,5.926,1.789,6.58c2.511,0.612,4.945-0.72,6.608-4.534c1.663-3.813,0.807-5.947-1.702-6.559
				C2185.845-303.947,2183.412-302.615,2181.749-298.801z"></path>
    </g>
  </g>
</svg>
